<?xml version="1.0" encoding="UTF-8"?>
<svg version="1.1" xmlns="http://www.w3.org/2000/svg" width="171" height="56">
<path d="M0 0 C5.00652764 2.88254622 7.82378764 6.29423842 10.0625 11.6875 C11.20784692 18.44504681 10.52113302 24.55845335 6.6875 30.375 C1.65416766 35.1894918 -2.21284634 37.4228599 -9.125 37.75 C-15.02319554 37.60956677 -19.58056045 35.97781803 -23.8828125 31.87890625 C-28.61858206 26.45306741 -28.71805095 21.61684444 -28.65625 14.6796875 C-28.15985836 9.90755881 -26.58716964 6.83728093 -23.3125 3.375 C-16.36620482 -2.04311024 -8.23595395 -3.77350742 0 0 Z " fill="#0A4566" transform="translate(38.3125,4.625)"/>
<path d="M0 0 C4.37694093 2.11031081 7.17215894 4.43039736 9 9 C8.09851247 12.20093399 6.87435517 13.08635965 4.1015625 14.9921875 C2.95429688 15.61351562 1.80703125 16.23484375 0.625 16.875 C-0.51710937 17.51179688 -1.65921875 18.14859375 -2.8359375 18.8046875 C-6 20 -6 20 -8.3671875 19.359375 C-10.6178943 17.48558083 -10.70088992 15.84154577 -11 13 C-8.69 11.68 -6.38 10.36 -4 9 C-4.99 8.67 -5.98 8.34 -7 8 C-9.70800597 10.03949126 -9.70800597 10.03949126 -12 13 C-11.94271002 16.74360341 -11.94271002 16.74360341 -11 20 C-5.41108318 21.16290931 -5.41108318 21.16290931 0 20 C0.33 19.01 0.66 18.02 1 17 C3.64 17.33 6.28 17.66 9 18 C9.02578125 17.41992188 9.0515625 16.83984375 9.078125 16.2421875 C9.55283917 9.70407867 11.07818717 5.65619348 16.0625 1.125 C21.07044197 -0.79293522 27.04066237 -1.3045935 32.046875 0.90234375 C33.6875 2 33.6875 2 36 4 C33.26462543 8.32365658 33.26462543 8.32365658 31 10 C28.53329592 10.0777595 26.48157909 9.71314446 24.0859375 9.13671875 C21.9412333 8.76587964 21.9412333 8.76587964 20.40161133 10.22705078 C18.70173069 12.37729171 18.58452331 13.51644274 18.48828125 16.23046875 C18.45283203 17.03291016 18.41738281 17.83535156 18.38085938 18.66210938 C18.35830078 19.49548828 18.33574219 20.32886719 18.3125 21.1875 C18.27833984 22.03248047 18.24417969 22.87746094 18.20898438 23.74804688 C18.12658529 25.83156649 18.06161355 27.91576216 18 30 C15.03 30 12.06 30 9 30 C8.67 27.36 8.34 24.72 8 22 C7.29875 22.94875 6.5975 23.8975 5.875 24.875 C3.19600345 28.04040654 1.18373789 29.27589152 -3 30 C-8.11170244 30.23362443 -11.87841361 29.53439983 -15.9375 26.3125 C-19.37707768 22.95272691 -20.96427824 19.96490605 -21.0234375 15.0546875 C-20.59517228 9.12659529 -18.36952675 5.15411522 -13.9375 1.125 C-9.31242228 -0.64630636 -4.88371757 -0.64542523 0 0 Z " fill="#AED036" transform="translate(135,8)"/>
<path d="M0 0 C2.87109375 1.53125 2.87109375 1.53125 5 3 C4.43745513 6.26276027 3.64883085 7.97022176 1 10 C-1.38098831 9.96549292 -3.51212778 9.49757444 -5.84375 9.03125 C-8.0522433 8.7758955 -8.0522433 8.7758955 -9.6027832 10.23364258 C-11.30005602 12.37932995 -11.41564841 13.52128504 -11.51171875 16.23046875 C-11.54716797 17.03291016 -11.58261719 17.83535156 -11.61914062 18.66210938 C-11.65297852 19.91217773 -11.65297852 19.91217773 -11.6875 21.1875 C-11.72166016 22.03248047 -11.75582031 22.87746094 -11.79101562 23.74804688 C-11.87341471 25.83156649 -11.93838645 27.91576216 -12 30 C-14.97 30 -17.94 30 -21 30 C-21.08132642 26.95778935 -21.14065374 23.9177762 -21.1875 20.875 C-21.21263672 20.0190625 -21.23777344 19.163125 -21.26367188 18.28125 C-21.34203935 11.48940192 -20.03946514 7.40552298 -15.5625 2.125 C-11.1449899 -1.3157742 -5.2858919 -0.85371067 0 0 Z " fill="#AED036" transform="translate(100,8)"/>
<path d="M0 0 C8.58 0 17.16 0 26 0 C26 2.31 26 4.62 26 7 C23.03 7 20.06 7 17 7 C17 14.26 17 21.52 17 29 C14.36 29 11.72 29 9 29 C9 21.74 9 14.48 9 7 C6.03 7 3.06 7 0 7 C0 4.69 0 2.38 0 0 Z " fill="#B0D13B" transform="translate(53,8)"/>
<path d="M0 0 C3.73976724 -0.2876744 6.20214767 -0.45876509 9.5 1.4375 C11.80802763 5.38038053 11.03948445 8.6763473 10 13 C7.80714821 19.0014891 4.03302846 22.51875354 -1.6875 25.3125 C-4 26 -4 26 -7 26 C-9.64 20.72 -12.28 15.44 -15 10 C-13.35 9.34 -11.7 8.68 -10 8 C-10 7.34 -10 6.68 -10 6 C-8.68 5.67 -7.36 5.34 -6 5 C-5.01 6.485 -5.01 6.485 -4 8 C-4.99 8 -5.98 8 -7 8 C-5.35 10.97 -3.7 13.94 -2 17 C2.63019987 16.5547002 2.63019987 16.5547002 4 15 C4.41717279 12.58462162 4.41717279 12.58462162 4 10 C3.34 9.54625 2.68 9.0925 2 8.625 C1.34 8.08875 0.68 7.5525 0 7 C-0.25 3.3125 -0.25 3.3125 0 0 Z " fill="#093453" transform="translate(38,16)"/>
<path d="M0 0 C0.78375 0.495 1.5675 0.99 2.375 1.5 C2.375 2.16 2.375 2.82 2.375 3.5 C-2.00961538 6.5 -2.00961538 6.5 -4.625 6.5 C-4.955 5.84 -5.285 5.18 -5.625 4.5 C-7.935 4.5 -10.245 4.5 -12.625 4.5 C-12.50125 5.221875 -12.3775 5.94375 -12.25 6.6875 C-12.625 9.5 -12.625 9.5 -15.375 12.0625 C-15.92542969 12.47242188 -16.47585937 12.88234375 -17.04296875 13.3046875 C-18.79809123 14.56162288 -18.79809123 14.56162288 -20.6875 16.6875 C-22.86476319 18.7242946 -24.81626807 19.56375602 -27.625 20.5 C-28.26043063 14.39986596 -27.68117209 10.29814883 -24.125 5.2265625 C-17.87311404 -1.96961874 -8.59623169 -3.55706139 0 0 Z " fill="#0D2A41" transform="translate(37.625,4.5)"/>
<path d="M0 0 C2.31 0 4.62 0 7 0 C7 9.9 7 19.8 7 30 C4.69 30 2.38 30 0 30 C0 20.1 0 10.2 0 0 Z " fill="#AED036" transform="translate(106,8)"/>
<path d="M0 0 C0.33 0.99 0.66 1.98 1 3 C-0.32 3.99 -1.64 4.98 -3 6 C-2.4946875 6.91523438 -1.989375 7.83046875 -1.46875 8.7734375 C-0.81228073 9.97383845 -0.1560427 11.17436587 0.5 12.375 C0.83386719 12.97828125 1.16773438 13.5815625 1.51171875 14.203125 C4 18.7734375 4 18.7734375 4 21 C0.875 21.5625 0.875 21.5625 -3 21 C-7.08491361 17.17205493 -9.36003054 12.72972289 -9.5625 7.125 C-9.49168679 4.49074853 -9.27476729 3.35912567 -7.6640625 1.25390625 C-5.18114445 -0.61702496 -3.01037742 -0.20069183 0 0 Z " fill="#90AE36" transform="translate(27,21)"/>
<path d="M0 0 C4.05224029 2.8475202 6.1869334 5.36660757 8 10 C7.67 10.66 7.34 11.32 7 12 C6.34 11.67 5.68 11.34 5 11 C3.5534758 10.84932786 2.1012066 10.75138964 0.6484375 10.68359375 C-0.20234375 10.64169922 -1.053125 10.59980469 -1.9296875 10.55664062 C-2.81914063 10.51732422 -3.70859375 10.47800781 -4.625 10.4375 C-5.5221875 10.39431641 -6.419375 10.35113281 -7.34375 10.30664062 C-9.56234283 10.20043139 -11.7810488 10.09838806 -14 10 C-14.33 7.69 -14.66 5.38 -15 3 C-11.535 2.505 -11.535 2.505 -8 2 C-7.67 2.99 -7.34 3.98 -7 5 C-6.21625 4.505 -5.4325 4.01 -4.625 3.5 C-2 2 -2 2 0 2 C0 1.34 0 0.68 0 0 Z " fill="#5E7836" transform="translate(40,6)"/>
<path d="M0 0 C0.33 0.99 0.66 1.98 1 3 C-0.134375 3.309375 -1.26875 3.61875 -2.4375 3.9375 C-5.78775099 4.62924531 -5.78775099 4.62924531 -7 6 C-7.90271299 12.76294816 -6.38245131 17.18641182 -3 23 C-8.03912432 21.92018765 -10.49075225 19.8541963 -13.80078125 16.14453125 C-15.45514744 13.18607185 -15.65996471 10.34034671 -16 7 C-13.89983377 5.82558465 -11.79541245 4.66035988 -9.6875 3.5 C-9.09259766 3.16613281 -8.49769531 2.83226562 -7.88476562 2.48828125 C-5.04171156 0.93174886 -3.29339012 0 0 0 Z " fill="#728E35" transform="translate(26,18)"/>
<path d="M0 0 C1.32 0 2.64 0 4 0 C4 0.66 4 1.32 4 2 C4.66 2 5.32 2 6 2 C6 1.34 6 0.68 6 0 C7.32 0 8.64 0 10 0 C10 3.96 10 7.92 10 12 C6.7 12 3.4 12 0 12 C0 8.04 0 4.08 0 0 Z " fill="#18345D" transform="translate(118,40)"/>
<path d="M0 0 C2.125 0.9375 2.125 0.9375 4 2 C3.01 2.33 2.02 2.66 1 3 C1.3609375 3.62648438 1.721875 4.25296875 2.09375 4.8984375 C2.5578125 5.71570313 3.021875 6.53296875 3.5 7.375 C3.9640625 8.18710937 4.428125 8.99921875 4.90625 9.8359375 C6 12 6 12 6 14 C3 16 3 16 0.48828125 15.94140625 C-2 15 -2 15 -3.58203125 12.71484375 C-4.19111328 11.34005859 -4.19111328 11.34005859 -4.8125 9.9375 C-5.23144531 9.01839844 -5.65039062 8.09929688 -6.08203125 7.15234375 C-6.38496094 6.44207031 -6.68789063 5.73179688 -7 5 C-5.35 4.34 -3.7 3.68 -2 3 C-2 2.34 -2 1.68 -2 1 C-1.34 0.67 -0.68 0.34 0 0 Z " fill="#055B87" transform="translate(30,21)"/>
<path d="M0 0 C1.5625 1.1875 1.5625 1.1875 3 3 C3.0625 5.375 3.0625 5.375 2 8 C-2.20385608 12.1083139 -6.01100846 15 -12 15 C-12.66 13.35 -13.32 11.7 -14 10 C-13.22914062 9.73445313 -12.45828125 9.46890625 -11.6640625 9.1953125 C-10.66117188 8.84210937 -9.65828125 8.48890625 -8.625 8.125 C-7.12839844 7.60292969 -7.12839844 7.60292969 -5.6015625 7.0703125 C-2.89557882 6.15217498 -2.89557882 6.15217498 -1 4 C-0.3574765 1.93125966 -0.3574765 1.93125966 0 0 Z " fill="#0D4562" transform="translate(43,27)"/>
<path d="M0 0 C1.62463842 -0.05395478 3.24978541 -0.09277195 4.875 -0.125 C5.77992187 -0.14820312 6.68484375 -0.17140625 7.6171875 -0.1953125 C10 0 10 0 12 2 C12.36796448 4.87012296 12.37509409 6.40774618 10.8125 8.875 C9 10 9 10 6.5625 10.0625 C2.93444038 8.5581826 1.83405424 6.39639673 0 3 C0 2.01 0 1.02 0 0 Z " fill="#7A9836" transform="translate(31,24)"/>
<path d="M0 0 C2.8125 2.3125 2.8125 2.3125 5 5 C5 5.99 5 6.98 5 8 C1.37 8 -2.26 8 -6 8 C-6.33 5.69 -6.66 3.38 -7 1 C-4.35955695 -0.32022153 -2.93650531 -0.40974493 0 0 Z " fill="#84A135" transform="translate(32,8)"/>
<path d="M0 0 C1.65 0.33 3.3 0.66 5 1 C5 4.63 5 8.26 5 12 C3.35 12.33 1.7 12.66 0 13 C-1.74881472 8.95586595 -2.58963383 6.58464091 -1 2.3125 C-0.505 1.1678125 -0.505 1.1678125 0 0 Z " fill="#1E416B" transform="translate(83,40)"/>
<path d="M0 0 C1.67542976 0.28604898 3.34385343 0.61781233 5 1 C5.05395478 2.62463842 5.09277195 4.24978541 5.125 5.875 C5.14820313 6.77992187 5.17140625 7.68484375 5.1953125 8.6171875 C5 11 5 11 3 13 C0.875 12.625 0.875 12.625 -1 12 C-2.08718377 7.92306087 -1.95306309 5.12994007 -1 1 C-0.67 0.67 -0.34 0.34 0 0 Z M1 3 C2 5 2 5 2 5 Z M1 8 C2 10 2 10 2 10 Z " fill="#18355E" transform="translate(147,40)"/>
<path d="M0 0 C1.32 0 2.64 0 4 0 C4.33 4.29 4.66 8.58 5 13 C2.69 13 0.38 13 -2 13 C-1.85966889 11.02043559 -1.7125877 9.04134859 -1.5625 7.0625 C-1.48128906 5.96035156 -1.40007812 4.85820313 -1.31640625 3.72265625 C-1 1 -1 1 0 0 Z " fill="#1F426C" transform="translate(135,40)"/>
<path d="M0 0 C0.77577388 3.39401072 1.2824844 6.51602575 1 10 C0.34 10.66 -0.32 11.32 -1 12 C-3.125 11.625 -3.125 11.625 -5 11 C-6.00302224 7.23866661 -6 3.88566706 -6 0 C-3.50907189 -1.24546405 -2.58919267 -0.7767578 0 0 Z M-3 2 C-2 4 -2 4 -2 4 Z M-3 7 C-2 9 -2 9 -2 9 Z " fill="#19355E" transform="translate(67,41)"/>
<path d="M0 0 C2.31 0 4.62 0 7 0 C7 0.99 7 1.98 7 3 C5.68 3 4.36 3 3 3 C3 3.66 3 4.32 3 5 C3.99 5 4.98 5 6 5 C6 5.99 6 6.98 6 8 C5.01 8 4.02 8 3 8 C3 8.66 3 9.32 3 10 C4.32 10 5.64 10 7 10 C7 10.66 7 11.32 7 12 C4.69 12 2.38 12 0 12 C0 8.04 0 4.08 0 0 Z " fill="#1B3A64" transform="translate(106,40)"/>
<path d="M0 0 C0.66 0.33 1.32 0.66 2 1 C2 2.32 2 3.64 2 5 C2.99 4.67 3.98 4.34 5 4 C4.875 5.875 4.875 5.875 4 8 C0.9375 9.25 0.9375 9.25 -2 10 C-5 6.375 -5 6.375 -5 3 C-2.625 1.25 -2.625 1.25 0 0 Z " fill="#A7CF42" transform="translate(129,18)"/>
<path d="M0 0 C0.66 0 1.32 0 2 0 C2 0.66 2 1.32 2 2 C5.465 1.505 5.465 1.505 9 1 C12 5.75 12 5.75 12 8 C8.8125 8.4375 8.8125 8.4375 5 8 C2.86005761 5.93421402 1.36975681 3.63220548 0 1 C0 0.67 0 0.34 0 0 Z " fill="#799737" transform="translate(19,34)"/>
<path d="M0 0 C3 1 3 1 4.38671875 3.28515625 C4.81597656 4.20167969 5.24523438 5.11820313 5.6875 6.0625 C6.34298828 7.44115234 6.34298828 7.44115234 7.01171875 8.84765625 C7.33785156 9.55792969 7.66398437 10.26820312 8 11 C2.33289301 9.68206814 0.33562767 7.51290803 -3 3 C-2.01 2.01 -1.02 1.02 0 0 Z " fill="#113A4F" transform="translate(15,30)"/>
<path d="M0 0 C2.31 0 4.62 0 7 0 C7 0.99 7 1.98 7 3 C6.34 3 5.68 3 5 3 C5 5.97 5 8.94 5 12 C4.01 12 3.02 12 2 12 C2 9.03 2 6.06 2 3 C1.34 3 0.68 3 0 3 C0 2.01 0 1.02 0 0 Z " fill="#224974" transform="translate(94,40)"/>
<path d="M0 0 C0.66 0.33 1.32 0.66 2 1 C1.67 1.66 1.34 2.32 1 3 C1.9662501 5.01652194 2.96708324 7.01679982 4 9 C4 9.66 4 10.32 4 11 C2.02 10.34 0.04 9.68 -2 9 C-2.6875 6.1875 -2.6875 6.1875 -3 3 C-1.5625 1.125 -1.5625 1.125 0 0 Z " fill="#9BBC39" transform="translate(23,24)"/>
<path d="M0 0 C2.64 0 5.28 0 8 0 C7.75 2.375 7.75 2.375 7 5 C4.9375 6.3125 4.9375 6.3125 3 7 C0 3.375 0 3.375 0 0 Z " fill="#95B83B" transform="translate(31,24)"/>
<path d="M0 0 C2.125 0.9375 2.125 0.9375 4 2 C3.01 2.33 2.02 2.66 1 3 C0.67 3.66 0.34 4.32 0 5 C-0.99 5.495 -0.99 5.495 -2 6 C-2.65213292 8.02463255 -2.65213292 8.02463255 -3 10 C-3.66 10 -4.32 10 -5 10 C-5.66 8.35 -6.32 6.7 -7 5 C-5.35 4.34 -3.7 3.68 -2 3 C-2 2.34 -2 1.68 -2 1 C-1.34 0.67 -0.68 0.34 0 0 Z " fill="#08567D" transform="translate(30,21)"/>
<path d="M0 0 C0.66 0.33 1.32 0.66 2 1 C0.02 1.99 0.02 1.99 -2 3 C-2 5.31 -2 7.62 -2 10 C-3.32 10.33 -4.64 10.66 -6 11 C-6.33 8.69 -6.66 6.38 -7 4 C-1.7265625 0.77734375 -1.7265625 0.77734375 0 0 Z " fill="#5F7936" transform="translate(17,21)"/>
<path d="M0 0 C5.625 -0.25 5.625 -0.25 9 2 C9.1875 4.625 9.1875 4.625 9 7 C8.236875 6.67 7.47375 6.34 6.6875 6 C4.00930865 4.82563314 4.00930865 4.82563314 1 5 C0.67 3.35 0.34 1.7 0 0 Z " fill="#07476C" transform="translate(26,17)"/>
<path d="M0 0 C0.99 0 1.98 0 3 0 C3 3.96 3 7.92 3 12 C2.01 12 1.02 12 0 12 C0 8.04 0 4.08 0 0 Z " fill="#1C3C66" transform="translate(73,40)"/>
<path d="M0 0 C1.67542976 0.28604898 3.34385343 0.61781233 5 1 C5 2.32 5 3.64 5 5 C3.35 5.33 1.7 5.66 0 6 C-0.38218767 4.34385343 -0.71395102 2.67542976 -1 1 C-0.67 0.67 -0.34 0.34 0 0 Z " fill="#26517C" transform="translate(122,44)"/>
<path d="M0 0 C1.65 0.33 3.3 0.66 5 1 C5 2.32 5 3.64 5 5 C3.35 5 1.7 5 0 5 C-0.33 5.66 -0.66 6.32 -1 7 C-1.625 5.1875 -1.625 5.1875 -2 3 C-1.34 2.01 -0.68 1.02 0 0 Z " fill="#18345D" transform="translate(83,40)"/>
<path d="M0 0 C0.99 0.33 1.98 0.66 3 1 C3.75 2.9375 3.75 2.9375 4 5 C3.67 5.66 3.34 6.32 3 7 C1.35 6.67 -0.3 6.34 -2 6 C-2.33 4.68 -2.66 3.36 -3 2 C-2.01 1.34 -1.02 0.68 0 0 Z " fill="#94C83E" transform="translate(133,17)"/>
<path d="M0 0 C1.65 0 3.3 0 5 0 C5.3125 2.3125 5.3125 2.3125 5 5 C2.5 6.8125 2.5 6.8125 0 8 C0 5.36 0 2.72 0 0 Z " fill="#92C739" transform="translate(63,15)"/>
<path d="M0 0 C0 0.66 0 1.32 0 2 C2.31 2 4.62 2 7 2 C7 2.33 7 2.66 7 3 C6.33613281 3.12117188 5.67226563 3.24234375 4.98828125 3.3671875 C0.46575541 4.22547708 -3.79938524 5.03971311 -8 7 C-6.47663111 3.31852519 -4.31953005 0 0 0 Z " fill="#1A4551" transform="translate(26,14)"/>
<path d="M0 0 C1.67542976 0.28604898 3.34385343 0.61781233 5 1 C4.67 2.65 4.34 4.3 4 6 C3.01 5.34 2.02 4.68 1 4 C0.01 4.66 -0.98 5.32 -2 6 C-1.125 1.125 -1.125 1.125 0 0 Z " fill="#18335D" transform="translate(147,40)"/>
<path d="M0 0 C0 1.32 0 2.64 0 4 C-1.98 4 -3.96 4 -6 4 C-6.33 4.66 -6.66 5.32 -7 6 C-7 4.35 -7 2.7 -7 1 C-4.53721199 -0.231394 -2.7204945 -0.07159196 0 0 Z " fill="#6E8935" transform="translate(32,8)"/>
<path d="M0 0 C2.31 0 4.62 0 7 0 C7 1.65 7 3.3 7 5 C4.69 5 2.38 5 0 5 C0 3.35 0 1.7 0 0 Z " fill="#19355E" transform="translate(133,48)"/>
<path d="M0 0 C0 0.99 0 1.98 0 3 C-0.763125 2.979375 -1.52625 2.95875 -2.3125 2.9375 C-5.10185786 2.87057159 -5.10185786 2.87057159 -8 4 C-8 6.64 -8 9.28 -8 12 C-8.33 12 -8.66 12 -9 12 C-9.08131463 10.56344146 -9.13933559 9.1255517 -9.1875 7.6875 C-9.22230469 6.88699219 -9.25710937 6.08648437 -9.29296875 5.26171875 C-9 3 -9 3 -7.6875 1.21875 C-5.18004388 -0.59219053 -3.00079974 -0.20005332 0 0 Z " fill="#84A136" transform="translate(27,21)"/>
<path d="M0 0 C2.31 0 4.62 0 7 0 C7 0.99 7 1.98 7 3 C2.25 4.125 2.25 4.125 0 3 C0 2.01 0 1.02 0 0 Z " fill="#17315A" transform="translate(94,40)"/>
<path d="M0 0 C0.33 0 0.66 0 1 0 C1.33 2.31 1.66 4.62 2 7 C3.32 6.34 4.64 5.68 6 5 C4.70700306 7.88437779 3.34058637 9.87219421 1 12 C0.03929566 9.11788698 -0.10581883 7.30149956 -0.0625 4.3125 C-0.05347656 3.50425781 -0.04445312 2.69601563 -0.03515625 1.86328125 C-0.02355469 1.24839844 -0.01195312 0.63351562 0 0 Z " fill="#A2CD3D" transform="translate(62,15)"/>
<path d="M0 0 C0.33 0 0.66 0 1 0 C1.23053497 2.84326464 1.35903101 4.46145349 -0.25 6.875 C-2 8 -2 8 -4.109375 7.5703125 C-4.73328125 7.38210937 -5.3571875 7.19390625 -6 7 C-5.02433888 5.83040013 -4.044375 4.66438823 -3.0625 3.5 C-2.51722656 2.8503125 -1.97195312 2.200625 -1.41015625 1.53125 C-0.71212891 0.77328125 -0.71212891 0.77328125 0 0 Z " fill="#65843A" transform="translate(42,26)"/>
<path d="M0 0 C2.97 0 5.94 0 9 0 C6.1709277 2.8290723 5.61855575 3.37611108 2 4 C1.34 2.68 0.68 1.36 0 0 Z " fill="#BAD752" transform="translate(125,24)"/>
<path d="M0 0 C0.66 0 1.32 0 2 0 C2 0.66 2 1.32 2 2 C3.65 1.67 5.3 1.34 7 1 C6.34 2.32 5.68 3.64 5 5 C3.68 4.67 2.36 4.34 1 4 C0.67 2.68 0.34 1.36 0 0 Z " fill="#17325B" transform="translate(61,48)"/>
<path d="M0 0 C2.475 0.495 2.475 0.495 5 1 C4.67 2.32 4.34 3.64 4 5 C2.68 5 1.36 5 0 5 C0 3.35 0 1.7 0 0 Z " fill="#26507C" transform="translate(63,45)"/>
<path d="M0 0 C0.66 1.32 1.32 2.64 2 4 C-1.375 4.1875 -1.375 4.1875 -5 4 C-5.66 3.01 -6.32 2.02 -7 1 C-4.69 1.33 -2.38 1.66 0 2 C0 1.34 0 0.68 0 0 Z " fill="#627F37" transform="translate(29,38)"/>
<path d="M0 0 C1.32 0.66 2.64 1.32 4 2 C4 2.99 4 3.98 4 5 C2.68 5.33 1.36 5.66 0 6 C-0.38218767 4.34385343 -0.71395102 2.67542976 -1 1 C-0.67 0.67 -0.34 0.34 0 0 Z " fill="#27527E" transform="translate(147,44)"/>
<path d="M0 0 C0.66 0 1.32 0 2 0 C1.75 2.375 1.75 2.375 1 5 C-1.0625 6.3125 -1.0625 6.3125 -3 7 C-3.33 6.34 -3.66 5.68 -4 5 C-3.525625 4.54625 -3.05125 4.0925 -2.5625 3.625 C-0.90972192 2.06741796 -0.90972192 2.06741796 0 0 Z " fill="#8CAA36" transform="translate(37,24)"/>
<path d="M0 0 C2.4375 0.8125 2.4375 0.8125 5 2 C5.33 2.99 5.66 3.98 6 5 C2.73045798 4.43628586 1.17424117 3.50037734 -1 1 C-0.67 0.67 -0.34 0.34 0 0 Z " fill="#6E8935" transform="translate(35,10)"/>
</svg>
